<svg xmlns="http://www.w3.org/2000/svg" width="116.714" height="66.614" viewBox="0 0 116.714 66.614">
  <defs>
    <style>
      .cls-1 {
        fill: #fae8cc;
      }

      .cls-2 {
        fill: none;
      }
    </style>
  </defs>
  <g id="Group_50" data-name="Group 50" transform="translate(-661.643 -1714)">
    <g id="Group_37" data-name="Group 37" transform="translate(661.643 1714)">
      <path id="Path_44" data-name="Path 44" class="cls-1" d="M324.41,50.073s-40.38,10.064-34.523,54.593c.165-.053.327-.107.49-.161q.461-1.087.959-2.158c-.907-9.025.118-17.207,3.053-24.348a42.349,42.349,0,0,1,11.679-16.036,52.518,52.518,0,0,1,16.942-9.678A52.675,52.675,0,0,1,321.5,71.87q-.5,1.781-1.123,3.485.983-.267,1.984-.493a52.75,52.75,0,0,0,2.054-24.789" transform="translate(-231.53 -40.073)"/>
      <path id="Path_45" data-name="Path 45" class="cls-1" d="M116.806,50.073s40.38,10.064,34.523,54.593l-.49-.161q-.461-1.087-.959-2.158c.907-9.025-.118-17.207-3.053-24.348a42.351,42.351,0,0,0-11.679-16.036,52.518,52.518,0,0,0-16.942-9.678A52.674,52.674,0,0,0,119.72,71.87q.5,1.781,1.123,3.485-.983-.267-1.983-.493a52.75,52.75,0,0,1-2.054-24.789" transform="translate(-92.972 -40.073)"/>
      <path id="Path_46" data-name="Path 46" class="cls-1" d="M350.572,176.786s-39.507-13.076-58.357,27.689c43.5,11.183,58.357-27.689,58.357-27.689m-55.9,26.526c4.059-8.123,9.3-14.5,15.605-18.969a42.351,42.351,0,0,1,18.442-7.312,52.519,52.519,0,0,1,19.492.876,52.675,52.675,0,0,1-11.747,15.744,42.324,42.324,0,0,1-17.309,9.593c-7.428,2.033-15.655,2.055-24.483.068" transform="translate(-233.858 -139.882)"/>
      <path id="Path_47" data-name="Path 47" class="cls-1" d="M58.357,204.476C39.507,163.711,0,176.787,0,176.787s14.859,38.872,58.357,27.689m-26.935-1.231a42.322,42.322,0,0,1-17.309-9.593A52.672,52.672,0,0,1,2.366,177.907a52.52,52.52,0,0,1,19.492-.876A42.351,42.351,0,0,1,40.3,184.343c6.3,4.47,11.546,10.846,15.605,18.969-8.828,1.987-17.055,1.966-24.483-.068" transform="translate(0 -139.883)"/>
      <path id="Path_48" data-name="Path 48" class="cls-1" d="M235.966,23.532q.383-1.777.915-3.552a52.676,52.676,0,0,1,9.188-17.362,52.514,52.514,0,0,1,9.147,17.235q.558,1.838.954,3.68.688-.751,1.413-1.477A52.741,52.741,0,0,0,246.067,0a52.742,52.742,0,0,0-11.515,22.055q.725.726,1.414,1.476" transform="translate(-187.711)"/>
      <rect id="Rectangle_18" data-name="Rectangle 18" class="cls-2" width="116.714" height="66.614" transform="translate(0)"/>
    </g>
  </g>
</svg>
