<svg xmlns="http://www.w3.org/2000/svg" width="367.64" height="58.243" viewBox="0 0 367.64 58.243">
  <defs>
    <style>
      .cls-1 {
        fill: #fae8cc;
      }
    </style>
  </defs>
  <path id="Path_69" data-name="Path 69" class="cls-1" d="M-183.008-43.615h11.375l17.1,24.635,17.355-24.635h11.44L-149.467-9.88V13h-9.815V-9.425Zm74.425,33.93a6.456,6.456,0,0,1-1.885-4.648,6.291,6.291,0,0,1,1.918-4.615,6.291,6.291,0,0,1,4.615-1.917,6.291,6.291,0,0,1,4.615,1.917A6.291,6.291,0,0,1-97.4-14.333,6.291,6.291,0,0,1-99.32-9.717,6.291,6.291,0,0,1-103.935-7.8,6.456,6.456,0,0,1-108.583-9.685Zm16.77-18.07a15.9,15.9,0,0,0-12.123-5.525,15.937,15.937,0,0,0-12.122,5.493,19.063,19.063,0,0,0-5.07,13.423,20.344,20.344,0,0,0,1.365,7.377A19.17,19.17,0,0,0-115.928-.78a15.794,15.794,0,0,0,11.993,5.4A16,16,0,0,0-91.878-.78a19.781,19.781,0,0,0,3.77-6.208,20.344,20.344,0,0,0,1.365-7.377A18.947,18.947,0,0,0-91.812-27.755Zm-25.74-11.44a25.2,25.2,0,0,1,13.618-3.9,25.2,25.2,0,0,1,13.618,3.9A27.663,27.663,0,0,1-80.5-28.665a29.664,29.664,0,0,1,3.575,14.3A30.215,30.215,0,0,1-78.943-3.412,28.319,28.319,0,0,1-84.728,5.85,26.608,26.608,0,0,1-93.5,12.188a25.242,25.242,0,0,1-10.433,2.243,25.242,25.242,0,0,1-10.433-2.243,26.608,26.608,0,0,1-8.775-6.337,28.319,28.319,0,0,1-5.785-9.263,30.215,30.215,0,0,1-2.015-10.952,29.664,29.664,0,0,1,3.575-14.3A27.663,27.663,0,0,1-117.553-39.195Zm64.675,19.24h29.965V1.755h-.065l-3.315,3.51a26.349,26.349,0,0,1-8.58,6.143,25.386,25.386,0,0,1-10.14,2.242,25.341,25.341,0,0,1-10.172-1.983,26.211,26.211,0,0,1-8.678-5.882A29.068,29.068,0,0,1-71.11-6.4a29.734,29.734,0,0,1-.78-14.2,29.732,29.732,0,0,1,5.817-13,26.408,26.408,0,0,1,9.2-7.507A25.933,25.933,0,0,1-45.6-43.81a25.1,25.1,0,0,1,16.9,5.98l3.77,3.185-6.24,7.54L-35-30.29a15.578,15.578,0,0,0-12.123-3.8A16.212,16.212,0,0,0-58.338-27.56a19.607,19.607,0,0,0-4.128,13.552A18.97,18.97,0,0,0-56.908-1.17,15.7,15.7,0,0,0-45.11,3.8,15.772,15.772,0,0,0-33.443-1.5l.715-.715v-7.865h-20.15ZM-17.713-43.29H-7.9V13h-9.815Zm35.49,22.425h.39a5.973,5.973,0,0,0,4.55-1.885,6.21,6.21,0,0,0,1.625-4.387,6.21,6.21,0,0,0-1.625-4.388,6.182,6.182,0,0,0-4.94-1.95l-9.36.065v12.545Zm0-22.425a17.3,17.3,0,0,1,6.89,1.365A14.877,14.877,0,0,1,30-38.155a15.7,15.7,0,0,1,4.16,10.985,15.732,15.732,0,0,1-3.965,10.79,17.135,17.135,0,0,1,4.355,5.688A15.651,15.651,0,0,1,36.107-3.9a15.241,15.241,0,0,1-1.332,6.207,18.22,18.22,0,0,1-3.64,5.4,17.232,17.232,0,0,1-5.817,3.835A19.406,19.406,0,0,1,17.777,13H-1.268L-1.4-43.225h.065Zm.455,32.24h-.455l-9.36.065V3.185h9.36q4.615,0,6.565-1.982a6.969,6.969,0,0,0,1.95-5.1A7.087,7.087,0,0,0,24.44-8.937Q22.587-10.92,18.232-11.05Zm55.51-13.065V-14.3a39.491,39.491,0,0,0-6.3.455,26.662,26.662,0,0,0-4.193.943q-1.4.487-4,1.528a58.551,58.551,0,0,1-6.89,2.405V3.185H78.942V13h-36.4V-43.29h35.1v9.815H52.357v14.3q.65-.26,3.217-1.3T60.19-22.2a39.867,39.867,0,0,1,5.753-1.3A47.417,47.417,0,0,1,73.742-24.115Zm31.2-19.175h10.53l21.385,56.42h-10.53L121.712.91q-1.43.195-2.99.26t-2.73.1q-1.17.032-2.925-.065t-2.6-.162Q109.622.975,107.7.748T105.2.423q-.585-.1-2.73-.423T99.937-.325l-.78-.13L94.022,13.13H83.492Zm13.13,34.645-7.865-20.8L102.732-9.88q3.77.585,5.558.813t4.615.39A46.065,46.065,0,0,0,118.072-8.645ZM141.408-43.29h19.175a20.428,20.428,0,0,1,8.092,1.593,18.341,18.341,0,0,1,6.208,4.192,19.654,19.654,0,0,1,3.867,5.883,17.019,17.019,0,0,1,1.4,6.728,17.609,17.609,0,0,1-2.6,9.165A18.488,18.488,0,0,1,170.462-8.9q.52.78,1.43,2.242t1.235,2.047a29.53,29.53,0,0,0,5.265,6.5,9.64,9.64,0,0,0,6.24,2.275v9.815a19.2,19.2,0,0,1-12.545-4.55,39.483,39.483,0,0,1-7.15-8.71q-3.835-5.915-4.81-7.02l-.2-.195h-8.71V13h-9.815V-43.29Zm9.815,26.975h9.36q5.2,0,7.475-2.405a8.578,8.578,0,0,0,2.275-6.142,8.694,8.694,0,0,0-2.275-6.175q-2.275-2.437-7.475-2.437h-9.36Z" transform="translate(183.008 43.813)"/>
</svg>
