<svg xmlns="http://www.w3.org/2000/svg" width="101.808" height="16.129" viewBox="0 0 101.808 16.129">
  <defs>
    <style>
      .cls-1 {
        fill: #fae8cc;
      }
    </style>
  </defs>
  <path id="Path_70" data-name="Path 70" class="cls-1" d="M-50.679-12.078h3.15l4.734,6.822,4.806-6.822h3.168l-6.57,9.342V3.6h-2.718V-2.61Zm20.61,9.4a1.788,1.788,0,0,1-.522-1.287,1.742,1.742,0,0,1,.531-1.278,1.742,1.742,0,0,1,1.278-.531,1.742,1.742,0,0,1,1.278.531,1.742,1.742,0,0,1,.531,1.278A1.742,1.742,0,0,1-27.5-2.691a1.742,1.742,0,0,1-1.278.531A1.788,1.788,0,0,1-30.069-2.682Zm4.644-5a4.4,4.4,0,0,0-3.357-1.53A4.413,4.413,0,0,0-32.139-7.7a5.279,5.279,0,0,0-1.4,3.717,5.634,5.634,0,0,0,.378,2.043A5.309,5.309,0,0,0-32.1-.216a4.374,4.374,0,0,0,3.321,1.494A4.429,4.429,0,0,0-25.443-.216,5.478,5.478,0,0,0-24.4-1.935a5.634,5.634,0,0,0,.378-2.043A5.247,5.247,0,0,0-25.425-7.686Zm-7.128-3.168a6.979,6.979,0,0,1,3.771-1.08,6.979,6.979,0,0,1,3.771,1.08,7.66,7.66,0,0,1,2.718,2.916,8.215,8.215,0,0,1,.99,3.96,8.367,8.367,0,0,1-.558,3.033,7.842,7.842,0,0,1-1.6,2.565,7.369,7.369,0,0,1-2.43,1.755A6.99,6.99,0,0,1-28.782,4a6.99,6.99,0,0,1-2.889-.621A7.368,7.368,0,0,1-34.1,1.62,7.842,7.842,0,0,1-35.7-.945a8.367,8.367,0,0,1-.558-3.033,8.215,8.215,0,0,1,.99-3.96A7.66,7.66,0,0,1-32.553-10.854Zm17.91,5.328h8.3V.486h-.018l-.918.972a7.3,7.3,0,0,1-2.376,1.7,7.03,7.03,0,0,1-2.808.621,7.018,7.018,0,0,1-2.817-.549,7.259,7.259,0,0,1-2.4-1.629,8.05,8.05,0,0,1-2.007-3.375,8.234,8.234,0,0,1-.216-3.933,8.233,8.233,0,0,1,1.611-3.6,7.313,7.313,0,0,1,2.547-2.079,7.182,7.182,0,0,1,3.123-.747,6.951,6.951,0,0,1,4.68,1.656l1.044.882L-8.631-7.506l-1.062-.882A4.314,4.314,0,0,0-13.05-9.441a4.489,4.489,0,0,0-3.1,1.809A5.43,5.43,0,0,0-17.3-3.879,5.253,5.253,0,0,0-15.759-.324a4.348,4.348,0,0,0,3.267,1.377A4.368,4.368,0,0,0-9.261-.414l.2-.2V-2.79h-5.58Zm9.738-6.462h2.718V3.6H-4.905Zm9.828,6.21h.108A1.654,1.654,0,0,0,6.291-6.3a1.72,1.72,0,0,0,.45-1.215,1.72,1.72,0,0,0-.45-1.215,1.712,1.712,0,0,0-1.368-.54l-2.592.018v3.474Zm0-6.21a4.792,4.792,0,0,1,1.908.378,4.12,4.12,0,0,1,1.476,1.044A4.349,4.349,0,0,1,9.459-7.524a4.356,4.356,0,0,1-1.1,2.988A4.745,4.745,0,0,1,9.567-2.961,4.334,4.334,0,0,1,10-1.08,4.221,4.221,0,0,1,9.63.639,5.045,5.045,0,0,1,8.622,2.133,4.772,4.772,0,0,1,7.011,3.195,5.374,5.374,0,0,1,4.923,3.6H-.351L-.387-11.97h.018ZM5.049-3.06H4.923l-2.592.018V.882H4.923A2.486,2.486,0,0,0,6.741.333a1.93,1.93,0,0,0,.54-1.413,1.962,1.962,0,0,0-.513-1.4A2.375,2.375,0,0,0,5.049-3.06ZM20.421-6.678V-3.96a10.936,10.936,0,0,0-1.746.126,7.383,7.383,0,0,0-1.161.261q-.387.135-1.107.423a16.214,16.214,0,0,1-1.908.666V.882h7.362V3.6H11.781V-11.988H21.5V-9.27h-7v3.96l.891-.36q.711-.288,1.278-.477a11.04,11.04,0,0,1,1.593-.36A13.131,13.131,0,0,1,20.421-6.678Zm8.64-5.31h2.916L37.9,3.636H34.983L33.705.252q-.4.054-.828.072t-.756.027Q31.8.36,31.311.333t-.72-.045Q30.357.27,29.826.207t-.693-.09Q28.971.09,28.377,0t-.7-.09l-.216-.036L26.037,3.636H23.121ZM32.7-2.394l-2.178-5.76-2.07,5.418q1.044.162,1.539.225t1.278.108A12.757,12.757,0,0,0,32.7-2.394Zm6.462-9.594h5.31a5.657,5.657,0,0,1,2.241.441,5.079,5.079,0,0,1,1.719,1.161A5.443,5.443,0,0,1,49.5-8.757a4.713,4.713,0,0,1,.387,1.863,4.876,4.876,0,0,1-.72,2.538A5.12,5.12,0,0,1,47.2-2.466q.144.216.4.621t.342.567A8.178,8.178,0,0,0,49.4.522a2.669,2.669,0,0,0,1.728.63V3.87a5.316,5.316,0,0,1-3.474-1.26A10.934,10.934,0,0,1,45.675.2Q44.613-1.44,44.343-1.746L44.289-1.8H41.877V3.6H39.159V-11.988Zm2.718,7.47h2.592a2.749,2.749,0,0,0,2.07-.666,2.376,2.376,0,0,0,.63-1.7,2.408,2.408,0,0,0-.63-1.71,2.726,2.726,0,0,0-2.07-.675H41.877Z" transform="translate(50.679 12.133)"/>
</svg>
