<svg xmlns="http://www.w3.org/2000/svg" width="20" height="16.207" viewBox="0 0 20 16.207">
  <defs>
    <style>
      .cls-1 {
        fill: #666;
      }
    </style>
  </defs>
  <path id="twitter-brands" class="cls-1" d="M17.968,53.041c.013.178.013.355.013.533A11.584,11.584,0,0,1,6.318,65.238,11.571,11.571,0,0,1,.025,63.4a8.479,8.479,0,0,0,.99.051A8.214,8.214,0,0,0,6.1,61.7a4.106,4.106,0,0,1-3.832-2.842,5.167,5.167,0,0,0,.774.063,4.334,4.334,0,0,0,1.078-.14A4.09,4.09,0,0,1,.838,54.791V54.74a4.128,4.128,0,0,0,1.853.52,4.1,4.1,0,0,1-1.269-5.482,11.644,11.644,0,0,0,8.453,4.289,4.628,4.628,0,0,1-.1-.939,4.1,4.1,0,0,1,7.092-2.8,8.067,8.067,0,0,0,2.6-.99,4.089,4.089,0,0,1-1.8,2.259,8.223,8.223,0,0,0,2.36-.634,8.8,8.8,0,0,1-2.056,2.119Z" transform="translate(-0.025 -49.031)"/>
</svg>
